<svg width="30" height="23" viewBox="0 0 30 23" fill="none" xmlns="http://www.w3.org/2000/svg">
<path d="M1.31909 9.07031C2.73551 3.41656 8.39103 0.332364 10.8191 0.795898C13.2469 1.25977 7.23575 5.14208 5.81909 10.7959C5.8027 10.8613 5.78778 10.9272 5.77222 10.9922C6.26564 10.8776 6.78433 10.8164 7.31909 10.8164C10.6327 10.8165 13.3191 13.1628 13.3191 16.0566C13.3191 18.9505 10.6327 21.2968 7.31909 21.2969C5.50038 21.2969 3.87157 20.5887 2.77124 19.4727C0.958903 18.1112 0.0992691 13.9394 1.31909 9.07031Z" fill="#FC8B86"/>
<path d="M1.31909 9.07031L0.591575 8.88805L0.591575 8.88805L1.31909 9.07031ZM10.8191 0.795898L10.9598 0.0592247L10.9597 0.059203L10.8191 0.795898ZM5.81909 10.7959L5.09158 10.6136L5.09158 10.6136L5.81909 10.7959ZM5.77222 10.9922L5.04284 10.8175L4.76031 11.9972L5.94194 11.7227L5.77222 10.9922ZM7.31909 10.8164L7.31911 10.0664H7.31909V10.8164ZM13.3191 16.0566H14.0691V16.0566L13.3191 16.0566ZM7.31909 21.2969V22.0469H7.31911L7.31909 21.2969ZM2.77124 19.4727L3.30533 18.9461L3.26623 18.9065L3.2217 18.873L2.77124 19.4727ZM1.31909 9.07031L2.04661 9.25257C2.70497 6.62467 4.35403 4.57745 6.13952 3.23927C7.03116 2.57102 7.94248 2.09077 8.75696 1.80619C9.58704 1.51615 10.2523 1.45125 10.6785 1.53259L10.8191 0.795898L10.9597 0.059203C10.1718 -0.0912179 9.21966 0.0555824 8.26217 0.390139C7.28908 0.73015 6.24273 1.2874 5.23993 2.03897C3.23655 3.54045 1.34963 5.8622 0.591575 8.88805L1.31909 9.07031ZM10.8191 0.795898L10.6783 1.53257C10.8965 1.57426 10.7434 1.60454 10.6639 1.40756C10.6044 1.26015 10.6882 1.21602 10.583 1.43891C10.4939 1.62782 10.3278 1.88475 10.0746 2.227C9.82543 2.56377 9.52127 2.94472 9.17317 3.3836C7.80685 5.10618 5.84464 7.60819 5.09158 10.6136L5.81909 10.7959L6.5466 10.9782C7.2102 8.32979 8.9619 6.06374 10.3484 4.31574C10.6885 3.88698 11.0124 3.48138 11.2804 3.11912C11.5444 2.76235 11.7844 2.40778 11.9395 2.07915C12.0786 1.7845 12.2448 1.31678 12.0549 0.84619C11.845 0.326021 11.3486 0.133502 10.9598 0.0592247L10.8191 0.795898ZM5.81909 10.7959L5.09158 10.6136C5.07421 10.6829 5.05524 10.7657 5.04284 10.8175L5.77222 10.9922L6.50159 11.1669C6.52032 11.0887 6.53118 11.0397 6.54661 10.9782L5.81909 10.7959ZM5.77222 10.9922L5.94194 11.7227C6.37978 11.621 6.84153 11.5664 7.31909 11.5664V10.8164V10.0664C6.72713 10.0664 6.1515 10.1341 5.6025 10.2616L5.77222 10.9922ZM7.31909 10.8164L7.31907 11.5664C10.3171 11.5665 12.5691 13.6692 12.5691 16.0566L13.3191 16.0566L14.0691 16.0566C14.0691 12.6565 10.9483 10.0665 7.31911 10.0664L7.31909 10.8164ZM13.3191 16.0566H12.5691C12.5691 18.4441 10.3171 20.5468 7.31907 20.5469L7.31909 21.2969L7.31911 22.0469C10.9483 22.0468 14.0691 19.4568 14.0691 16.0566H13.3191ZM7.31909 21.2969V20.5469C5.69331 20.5469 4.2593 19.9137 3.30533 18.9461L2.77124 19.4727L2.23715 19.9992C3.48383 21.2637 5.30745 22.0469 7.31909 22.0469V21.2969ZM2.77124 19.4727L3.2217 18.873C2.54283 18.363 1.92504 17.2106 1.64885 15.4694C1.37771 13.76 1.45794 11.6023 2.04661 9.25257L1.31909 9.07031L0.591575 8.88805C-0.039578 11.4074 -0.139439 13.7702 0.167367 15.7044C0.469116 17.6067 1.18732 19.2208 2.32078 20.0723L2.77124 19.4727Z" fill="black"/>
<path d="M16.8882 9.07011C18.3047 3.41636 23.9602 0.332165 26.3882 0.795699C28.8161 1.25958 22.8049 5.14188 21.3882 10.7957C21.3718 10.8611 21.3569 10.927 21.3414 10.992C21.8348 10.8774 22.3535 10.8162 22.8882 10.8162C26.2019 10.8163 28.8882 13.1626 28.8882 16.0564C28.8882 18.9503 26.2019 21.2966 22.8882 21.2967C21.0695 21.2967 19.4407 20.5885 18.3404 19.4725C16.5281 18.111 15.6684 13.9392 16.8882 9.07011Z" fill="#FC8B86"/>
<path d="M16.8882 9.07011L16.1607 8.88785L16.1607 8.88785L16.8882 9.07011ZM26.3882 0.795699L26.529 0.0590255L26.5289 0.0590038L26.3882 0.795699ZM21.3882 10.7957L20.6607 10.6134L20.6607 10.6134L21.3882 10.7957ZM21.3414 10.992L20.612 10.8173L20.3295 11.9971L21.5111 11.7225L21.3414 10.992ZM22.8882 10.8162L22.8883 10.0662H22.8882V10.8162ZM28.8882 16.0564H29.6382V16.0564L28.8882 16.0564ZM22.8882 21.2967V22.0467H22.8883L22.8882 21.2967ZM18.3404 19.4725L18.8745 18.9459L18.8354 18.9063L18.7909 18.8728L18.3404 19.4725ZM16.8882 9.07011L17.6158 9.25238C18.2741 6.62447 19.9232 4.57725 21.7087 3.23908C22.6003 2.57082 23.5116 2.09057 24.3261 1.80599C25.1562 1.51595 25.8215 1.45105 26.2476 1.53239L26.3882 0.795699L26.5289 0.0590038C25.741 -0.091417 24.7888 0.0553833 23.8313 0.38994C22.8582 0.729951 21.8119 1.2872 20.8091 2.03877C18.8057 3.54025 16.9188 5.862 16.1607 8.88785L16.8882 9.07011ZM26.3882 0.795699L26.2475 1.53237C26.4657 1.57406 26.3126 1.60434 26.2331 1.40736C26.1736 1.25995 26.2574 1.21582 26.1522 1.43871C26.063 1.62762 25.8969 1.88455 25.6437 2.2268C25.3946 2.56357 25.0904 2.94452 24.7423 3.3834C23.376 5.10598 21.4138 7.60799 20.6607 10.6134L21.3882 10.7957L22.1158 10.978C22.7794 8.32959 24.531 6.06354 25.9175 4.31555C26.2576 3.88678 26.5816 3.48118 26.8496 3.11892C27.1135 2.76215 27.3536 2.40758 27.5087 2.07895C27.6478 1.7843 27.814 1.31658 27.624 0.845991C27.4141 0.325822 26.9177 0.133303 26.529 0.0590255L26.3882 0.795699ZM21.3882 10.7957L20.6607 10.6134C20.6434 10.6827 20.6244 10.7655 20.612 10.8173L21.3414 10.992L22.0707 11.1667C22.0895 11.0885 22.1003 11.0395 22.1158 10.978L21.3882 10.7957ZM21.3414 10.992L21.5111 11.7225C21.9489 11.6208 22.4107 11.5662 22.8882 11.5662V10.8162V10.0662C22.2963 10.0662 21.7207 10.1339 21.1716 10.2614L21.3414 10.992ZM22.8882 10.8162L22.8882 11.5662C25.8862 11.5663 28.1382 13.669 28.1382 16.0564L28.8882 16.0564L29.6382 16.0564C29.6382 12.6563 26.5175 10.0663 22.8883 10.0662L22.8882 10.8162ZM28.8882 16.0564H28.1382C28.1382 18.4439 25.8862 20.5466 22.8882 20.5467L22.8882 21.2967L22.8883 22.0467C26.5175 22.0466 29.6382 19.4566 29.6382 16.0564H28.8882ZM22.8882 21.2967V20.5467C21.2625 20.5467 19.8284 19.9135 18.8745 18.9459L18.3404 19.4725L17.8063 19.999C19.053 21.2635 20.8766 22.0467 22.8882 22.0467V21.2967ZM18.3404 19.4725L18.7909 18.8728C18.112 18.3628 17.4942 17.2104 17.218 15.4692C16.9469 13.7598 17.0271 11.6021 17.6158 9.25237L16.8882 9.07011L16.1607 8.88785C15.5296 11.4072 15.4297 13.77 15.7365 15.7042C16.0383 17.6065 16.7565 19.2206 17.8899 20.0721L18.3404 19.4725Z" fill="black"/>
</svg>
