<svg width="220" height="54" viewBox="0 0 220 54" fill="none" xmlns="http://www.w3.org/2000/svg">
<rect width="220" height="54" rx="15" fill="white"></rect>
<line x1="49.2646" y1="24.6631" x2="49.2646" y2="29.1045" stroke="#363636" stroke-width="2" stroke-linecap="round"></line>
<line x1="53.3411" y1="22.0869" x2="53.3411" y2="32.3256" stroke="#363636" stroke-width="2" stroke-linecap="round"></line>
<line x1="57.4174" y1="23.374" x2="57.4174" y2="30.392" stroke="#363636" stroke-width="2" stroke-linecap="round"></line>
<line x1="61.4937" y1="23.374" x2="61.4937" y2="30.392" stroke="#363636" stroke-width="2" stroke-linecap="round"></line>
<line x1="70.3257" y1="20.1533" x2="70.3257" y2="34.2568" stroke="#363636" stroke-width="2" stroke-linecap="round"></line>
<line x1="79.1577" y1="18.8643" x2="79.1577" y2="34.9002" stroke="#363636" stroke-width="2" stroke-linecap="round"></line>
<line x1="87.3103" y1="20.1533" x2="87.3103" y2="34.2568" stroke="#363636" stroke-width="2" stroke-linecap="round"></line>
<line x1="96.1425" y1="19.5088" x2="96.1425" y2="34.2564" stroke="#363636" stroke-width="2" stroke-linecap="round"></line>
<line x1="103.616" y1="22.0869" x2="103.616" y2="32.3256" stroke="#363636" stroke-width="2" stroke-linecap="round"></line>
<line x1="112.448" y1="20.1533" x2="112.448" y2="33.6127" stroke="#363636" stroke-width="2" stroke-linecap="round"></line>
<line x1="120.6" y1="18.8643" x2="120.6" y2="35.5443" stroke="#363636" stroke-width="2" stroke-linecap="round"></line>
<line x1="128.753" y1="18.8643" x2="128.753" y2="35.5443" stroke="#363636" stroke-width="2" stroke-linecap="round"></line>
<line x1="138.264" y1="18.8643" x2="138.264" y2="35.5443" stroke="#363636" stroke-width="2" stroke-linecap="round"></line>
<line x1="146.417" y1="21.4424" x2="146.417" y2="32.3252" stroke="#363636" stroke-width="2" stroke-linecap="round"></line>
<line x1="66.2494" y1="19.5088" x2="66.2494" y2="34.9006" stroke="#363636" stroke-width="2" stroke-linecap="round"></line>
<line x1="74.4021" y1="16.9326" x2="74.4021" y2="36.8334" stroke="#363636" stroke-width="2" stroke-linecap="round"></line>
<line x1="83.2341" y1="16.9326" x2="83.2341" y2="36.8334" stroke="#363636" stroke-width="2" stroke-linecap="round"></line>
<line x1="91.3866" y1="16.9326" x2="91.3866" y2="36.8334" stroke="#363636" stroke-width="2" stroke-linecap="round"></line>
<line x1="100.219" y1="16.9326" x2="100.219" y2="36.8334" stroke="#363636" stroke-width="2" stroke-linecap="round"></line>
<line x1="108.371" y1="16.9326" x2="108.371" y2="36.8334" stroke="#363636" stroke-width="2" stroke-linecap="round"></line>
<line x1="116.524" y1="16.9326" x2="116.524" y2="36.8334" stroke="#363636" stroke-width="2" stroke-linecap="round"></line>
<line x1="125.356" y1="15" x2="125.356" y2="38.7656" stroke="#363636" stroke-width="2" stroke-linecap="round"></line>
<line x1="133.509" y1="15" x2="133.509" y2="38.7656" stroke="#363636" stroke-width="2" stroke-linecap="round"></line>
<line x1="142.341" y1="16.9326" x2="142.341" y2="36.8334" stroke="#363636" stroke-width="2" stroke-linecap="round"></line>
<line x1="150.493" y1="15" x2="150.493" y2="38.7656" stroke="#363636" stroke-width="2" stroke-linecap="round"></line>
<line x1="155.249" y1="20.1533" x2="155.249" y2="33.6127" stroke="#363636" stroke-width="2" stroke-linecap="round"></line>
<line x1="158.646" y1="18.8643" x2="158.646" y2="35.5443" stroke="#363636" stroke-width="2" stroke-linecap="round"></line>
<line x1="162.722" y1="22.0869" x2="162.722" y2="31.6814" stroke="#363636" stroke-width="2" stroke-linecap="round"></line>
<line x1="171.554" y1="22.0869" x2="171.554" y2="31.6814" stroke="#363636" stroke-width="2" stroke-linecap="round"></line>
<line x1="167.478" y1="23.374" x2="167.478" y2="31.0361" stroke="#363636" stroke-width="2" stroke-linecap="round"></line>
<line x1="175.631" y1="20.7969" x2="175.631" y2="32.968" stroke="#363636" stroke-width="2" stroke-linecap="round"></line>
<line x1="179.707" y1="20.1533" x2="179.707" y2="34.2568" stroke="#363636" stroke-width="2" stroke-linecap="round"></line>
<line x1="184.463" y1="15" x2="184.463" y2="38.7656" stroke="#363636" stroke-width="2" stroke-linecap="round"></line>
<line x1="188.539" y1="18.8643" x2="188.539" y2="35.5443" stroke="#363636" stroke-width="2" stroke-linecap="round"></line>
<line x1="192.615" y1="16.9326" x2="192.615" y2="37.4775" stroke="#363636" stroke-width="2" stroke-linecap="round"></line>
<line x1="197.371" y1="15" x2="197.371" y2="38.7656" stroke="#363636" stroke-width="2" stroke-linecap="round"></line>
<line x1="201.447" y1="16.9326" x2="201.447" y2="36.8334" stroke="#363636" stroke-width="2" stroke-linecap="round"></line>
<line x1="205.524" y1="19.5088" x2="205.524" y2="34.2564" stroke="#363636" stroke-width="2" stroke-linecap="round"></line>
<line x1="209.6" y1="24.6631" x2="209.6" y2="29.1045" stroke="#363636" stroke-width="2" stroke-linecap="round"></line>
<circle cx="27" cy="27" r="15" fill="#363636"></circle>
<path d="M32.5 26.634C33.1667 27.0189 33.1667 27.9811 32.5 28.366L24.25 33.1292C23.5833 33.5141 22.75 33.0329 22.75 32.2631V22.7369C22.75 21.9671 23.5833 21.4859 24.25 21.8708L32.5 26.634Z" fill="white"></path>
</svg>